<?xml version="1.0" encoding="utf-8"?>
<svg width="16" height="16" viewBox="0 0 16 16" xmlns="http://www.w3.org/2000/svg">
  <g transform="translate(8 8) scale(1.05) translate(-8 -8)">

    <g transform="translate(16 0) scale(-1 1)">
      <path fill="rgb(102, 148, 98)" fill-rule="evenodd" clip-rule="evenodd" d="M 8.001 2.625 C 7.228 2.625 6.585 3.182 6.451 3.916 C 6.63 3.889 6.813 3.875 7 3.875 L 9 3.875 C 9.187 3.875 9.371 3.889 9.55 3.917 C 9.417 3.182 8.774 2.625 8.001 2.625 Z M 5.176 4.2 C 5.176 4.255 5.177 4.31 5.18 4.364 C 4.754 4.612 4.383 4.944 4.09 5.338 L 2.077 4.25 C 1.773 4.086 1.394 4.199 1.23 4.503 C 1.066 4.807 1.179 5.186 1.483 5.35 L 3.528 6.455 C 3.428 6.786 3.375 7.137 3.375 7.5 L 3.375 8.375 L 4.625 7.5 C 4.625 6.188 5.688 5.125 7 5.125 L 9 5.125 C 10.312 5.125 11.375 6.188 11.375 7.5 L 11.375 8.142 C 11.735 8.049 12.112 8 12.5 8 C 12.542 8 12.584 8.001 12.625 8.002 L 12.625 7.5 C 12.625 7.137 12.572 6.786 12.472 6.455 L 14.515 5.35 C 14.818 5.185 14.931 4.806 14.767 4.503 C 14.602 4.199 14.223 4.086 13.92 4.25 L 11.91 5.338 C 11.617 4.945 11.247 4.613 10.821 4.365 C 10.824 4.31 10.826 4.255 10.826 4.2 C 10.826 2.64 9.561 1.375 8.001 1.375 C 6.441 1.375 5.176 2.64 5.176 4.2 Z"/>
    </g>

    <g transform="matrix(1.72881, 0, 0, 1.736895, -1.053778, 6.820135)" fill="#EE7A30" style="">
      <path d="M 6.237 1.353 L 6.237 2.353 L 8.237 2.353 L 8.237 1.353 M 2.237 1.353 L 2.237 2.353 L 4.237 2.353 L 4.237 1.353 M 6.237 3.353 L 5.237 2.353 L 4.237 3.353 L 1.237 3.353 L 1.237 0.353 L 9.237 0.353 L 9.237 3.353"/>
    </g>

  </g>
</svg>
